<?xml version="1.0" encoding="utf-8"?>
<!-- Generator: Adobe Illustrator 16.0.0, SVG Export Plug-In . SVG Version: 6.00 Build 0)  -->
<!DOCTYPE svg PUBLIC "-//W3C//DTD SVG 1.1//EN" "http://www.w3.org/Graphics/SVG/1.1/DTD/svg11.dtd">
<svg version="1.1"
	 id="Layer_1" xmlns:dc="http://purl.org/dc/elements/1.1/" xmlns:svg="http://www.w3.org/2000/svg" xmlns:inkscape="http://www.inkscape.org/namespaces/inkscape" xmlns:cc="http://creativecommons.org/ns#" xmlns:sodipodi="http://sodipodi.sourceforge.net/DTD/sodipodi-0.dtd" xmlns:rdf="http://www.w3.org/1999/02/22-rdf-syntax-ns#"
	 xmlns="http://www.w3.org/2000/svg" xmlns:xlink="http://www.w3.org/1999/xlink" x="0px" y="0px" width="720px" height="720px"
	 viewBox="0 0 720 720" enable-background="new 0 0 720 720" xml:space="preserve">
<g transform="translate(0,-952.36218)">
	<path fill="#666666" d="M139.435,951.159c-26.285,0-47.944,21.66-47.944,47.943v623.27c0,26.283,21.659,47.942,47.944,47.942
		H586.91c26.283,0,47.942-21.659,47.942-47.942v-623.27c0-26.284-21.659-47.943-47.942-47.943H139.435z M139.435,983.121H586.91
		c9.129,0,15.98,6.852,15.98,15.981v623.27c0,9.128-6.852,15.98-15.98,15.98H139.435c-9.13,0-15.981-6.853-15.981-15.98v-623.27
		C123.454,989.973,130.305,983.121,139.435,983.121z M203.359,1063.028c-8.826,0-15.981,7.155-15.981,15.981
		s7.155,15.981,15.981,15.981h319.625c8.826,0,15.981-7.154,15.981-15.981s-7.155-15.981-15.981-15.981H203.359z M203.359,1206.859
		c-8.826,0-15.981,7.154-15.981,15.981c0,8.826,7.155,15.981,15.981,15.981h319.625c8.826,0,15.981-7.155,15.981-15.981
		c0-8.827-7.155-15.981-15.981-15.981H203.359z M203.359,1350.689c-8.826,0-15.981,7.155-15.981,15.981
		c0,8.827,7.155,15.981,15.981,15.981h319.625c8.826,0,15.981-7.154,15.981-15.981c0-8.826-7.155-15.981-15.981-15.981H203.359z
		 M203.359,1494.521c-8.826,0-15.981,7.153-15.981,15.981c0,8.826,7.155,15.979,15.981,15.979h119.86
		c8.826,0,15.979-7.153,15.979-15.979c0-8.828-7.153-15.981-15.979-15.981H203.359z"/>
</g>
<path fill="#EF4123" d="M553.947,462.002c-4.121,0.295-7.97,2.174-10.736,5.246L449.07,568.629l-52.438-39.455
	c-7.041-5.325-17.064-3.933-22.388,3.108c-5.325,7.041-3.934,17.062,3.106,22.388c0.102,0.075,0.201,0.151,0.304,0.225
	l63.925,47.942c6.551,4.84,15.693,3.979,21.226-1.998l103.878-111.866c6.091-6.39,5.849-16.507-0.541-22.598
	c-3.265-3.113-7.695-4.7-12.195-4.371V462.002z"/>
</svg>
