<?xml version="1.0" encoding="utf-8"?>
<!-- Generator: Adobe Illustrator 16.0.0, SVG Export Plug-In . SVG Version: 6.00 Build 0)  -->
<!DOCTYPE svg PUBLIC "-//W3C//DTD SVG 1.1//EN" "http://www.w3.org/Graphics/SVG/1.1/DTD/svg11.dtd">
<svg version="1.1" id="Layer_1" xmlns="http://www.w3.org/2000/svg" xmlns:xlink="http://www.w3.org/1999/xlink" x="0px" y="0px"
	 width="360px" height="360px" viewBox="0 0 360 360" enable-background="new 0 0 360 360" xml:space="preserve">
<g>
	<path fill="#010101" d="M0,349.186L348.928,0.258l10.584,10.584L10.584,359.77L0,349.186z"/>
	<path fill="#EF4223" d="M78.451,156.226c43.073,0,78-34.928,78-78c0-43.073-34.927-78-78-78c-43.072,0-78,34.927-78,78
		C0.451,121.298,35.379,156.226,78.451,156.226z M78.451,14.975c34.928,0,63.251,28.324,63.251,63.251s-28.324,63.251-63.251,63.251
		c-34.927,0-63.251-28.324-63.251-63.251S43.524,14.975,78.451,14.975z"/>
	<path fill="#EF4223" d="M282,203.774c-43.072,0-78,34.928-78,78c0,43.073,34.928,78.001,78,78.001s78-34.928,78-78.001
		C360,238.702,325.072,203.774,282,203.774z M282,345.025c-34.928,0-63.252-28.323-63.252-63.251
		c0-34.927,28.324-63.251,63.252-63.251s63.251,28.324,63.251,63.251C345.251,316.702,316.928,345.025,282,345.025z"/>
</g>
</svg>
