<?xml version="1.0" encoding="utf-8"?>
<!-- Generator: Adobe Illustrator 26.3.1, SVG Export Plug-In . SVG Version: 6.00 Build 0)  -->
<svg version="1.1" id="Layer_1" xmlns="http://www.w3.org/2000/svg" xmlns:xlink="http://www.w3.org/1999/xlink" x="0px" y="0px"
	 viewBox="0 0 72 72" style="enable-background:new 0 0 72 72;" xml:space="preserve">
<style type="text/css">
	.st0{fill:#ED1C24;}
	.st1{fill:#ED2224;}
	.st2{fill:none;stroke:#FFFFFF;stroke-width:1.1208;stroke-miterlimit:10;}
	.st3{fill:#FFFFFF;}
	.st4{fill:#FFFFFF;stroke:#6D6E71;stroke-width:2.3185;stroke-linecap:round;stroke-linejoin:round;stroke-miterlimit:10;}
	.st5{fill:none;stroke:#ED1C24;stroke-width:2.3932;stroke-linecap:round;stroke-linejoin:round;stroke-miterlimit:10;}
	.st6{fill:none;stroke:#6D6E71;stroke-miterlimit:10;}
</style>
<g>
	<g>
		<path class="st4" d="M59.57,63H19.82c-0.9,0-1.63-0.73-1.63-1.63V3.14c0-0.9,0.73-1.63,1.63-1.63h39.74c0.9,0,1.63,0.73,1.63,1.63
			v58.23C61.19,62.27,60.46,63,59.57,63z"/>
	</g>
	<g>
		<path class="st4" d="M52.18,70.48H12.43c-0.9,0-1.63-0.73-1.63-1.63V10.63c0-0.9,0.73-1.63,1.63-1.63h39.74
			c0.9,0,1.63,0.73,1.63,1.63v58.23C53.8,69.75,53.08,70.48,52.18,70.48z"/>
		<g>
			<line class="st5" x1="18.09" y1="26.12" x2="46.74" y2="26.12"/>
			<line class="st5" x1="17.49" y1="35.51" x2="47.34" y2="35.51"/>
			<line class="st5" x1="18.09" y1="44.96" x2="29.82" y2="44.96"/>
			<line class="st5" x1="18.09" y1="54.11" x2="29.82" y2="54.11"/>
			<line class="st5" x1="18.09" y1="63.36" x2="22.91" y2="63.36"/>
			<line class="st5" x1="18.09" y1="16.12" x2="46.74" y2="16.12"/>
		</g>
	</g>
</g>
<path class="st6" d="M25.81,61.89c0.59-1.25,1.63-2,2.83-2.58c1.71-0.83,3.4-1.72,5.13-2.52c0.67-0.31,1.41-0.46,2.19-0.7
	c-0.15-0.23-0.33-0.44-0.45-0.68c-0.54-1.09-1.1-2.16-1.58-3.28c-0.19-0.45-0.26-0.98-0.29-1.48c-0.06-1.16-0.09-2.32-0.09-3.48
	c0.01-2.72,1.8-4.51,4.52-4.46c0.92,0.02,1.88,0.12,2.74,0.43c1.44,0.51,2.28,1.7,2.39,3.19c0.11,1.65,0.11,3.34-0.1,4.98
	c-0.21,1.58-1.06,2.98-1.93,4.31c-0.09,0.14-0.19,0.27-0.28,0.39c0.05,0.06,0.06,0.1,0.09,0.11c2.46,0.49,4.59,1.77,6.76,2.93
	c0.66,0.35,1.36,0.66,1.92,1.14c0.55,0.47,0.95,1.12,1.41,1.69c0,0.9,0,1.8,0,2.69c-8.42,0-16.83,0-25.25,0
	C25.81,63.69,25.81,62.79,25.81,61.89z"/>
</svg>
