<?xml version="1.0" encoding="utf-8"?>
<!-- Generator: Adobe Illustrator 26.3.1, SVG Export Plug-In . SVG Version: 6.00 Build 0)  -->
<svg version="1.1" id="Layer_1" xmlns="http://www.w3.org/2000/svg" xmlns:xlink="http://www.w3.org/1999/xlink" x="0px" y="0px"
	 viewBox="0 0 72 72" style="enable-background:new 0 0 72 72;" xml:space="preserve">
<style type="text/css">
	.st0{fill:none;stroke:#6E6F72;stroke-width:0.9864;stroke-miterlimit:10;}
	.st1{fill:#4D4D4D;}
	.st2{fill:#EC2227;}
	.st3{fill:none;stroke:#EC2227;stroke-width:0.9864;stroke-miterlimit:10;}
</style>
<g>
	<g>
		<g>
			<g>
				<g>
					<circle class="st0" cx="59.19" cy="47.97" r="12.32"/>
				</g>
			</g>
		</g>
	</g>
</g>
<g>
	<path class="st3" d="M59.91,13.59c0.87,0.32,1.8,0.55,2.61,0.99c1.61,0.87,2.69,2.34,2.74,4.11c0.15,4.78,0.05,9.56,0.05,14.39
		c-1.06-0.32-2.15-0.65-3.35-1c0-3.72,0-7.44,0-11.17c0-0.55,0-1.12-0.11-1.66c-0.25-1.25-1.07-1.92-2.31-2.04
		c-0.64-0.06-1.28-0.06-1.93-0.06c-16.38,0-32.75,0-49.13,0c-0.26,0-0.51,0-0.77,0c-2.88,0.04-3.65,0.8-3.65,3.69
		c-0.01,8.87-0.01,17.75,0,26.62c0,2.95,0.79,3.74,3.73,3.74c11.45,0.01,22.89,0,34.34,0c0.47,0,0.93,0,1.4,0
		c0.4,1.21,0.76,2.34,1.16,3.56c-7.23,0-14.38,0-21.56,0c-0.04,0.29-0.07,0.49-0.09,0.7c-0.16,1.5-0.54,1.87-2.02,1.87
		c-1.67,0.01-3.34,0-5.02,0c-2.27,0-2.46-0.17-2.69-2.58c-1.68,0-3.38,0.06-5.07-0.02c-1.19-0.05-2.4-0.16-3.54-0.46
		C2.47,53.66,1.27,52,0.74,49.81c-0.08-0.33-0.17-0.65-0.25-0.98c0-9.77,0-19.55,0-29.32c0.19-0.69,0.34-1.41,0.58-2.08
		c0.87-2.35,2.82-3.3,5.07-3.83C24.07,13.59,41.99,13.59,59.91,13.59z"/>
	<path class="st3" d="M32.33,42.92c-8.13,0-16.21,0-24.36,0c0.34-1.56,1.23-2.49,2.66-2.9c1.44-0.41,2.91-0.72,4.33-1.18
		c2.03-0.66,2.46-2.1,1.25-3.81c-0.54-0.77-1.04-1.57-1.53-2.37c-0.53-0.87-0.91-1.7-0.01-2.67c0.31-0.34,0.22-1.14,0.17-1.71
		c-0.23-2.58,0.92-4.1,3.14-5.46c2.13-1.3,3.57-0.13,5.16,0.58c1.61,0.71,2.33,2.16,2.33,3.97c0,1.15-0.29,2.35,0.59,3.42
		c0.22,0.27-0.04,1.09-0.28,1.54c-0.57,1.05-1.25,2.04-1.93,3.03c-0.81,1.19-0.46,2.76,0.9,3.26c1.4,0.51,2.87,0.83,4.31,1.21
		C30.69,40.25,31.93,41.07,32.33,42.92z"/>
	<path class="st3" d="M45.75,26.96c-2.74,0-5.48-0.02-8.21,0.01c-1.01,0.01-1.82-0.13-1.84-1.38c-0.02-1.24,0.72-1.46,1.76-1.45
		c5.52,0.02,11.04,0.02,16.56,0c1.04,0,1.8,0.23,1.79,1.44c-0.02,1.22-0.82,1.41-1.84,1.39C51.22,26.94,48.49,26.96,45.75,26.96z"/>
	<path class="st3" d="M55.07,32.32c-1.38,0.66-2.76,1.33-4.15,1.96c-0.33,0.15-0.74,0.2-1.11,0.2c-4.16,0.01-8.31-0.01-12.47,0.02
		c-1.03,0.01-1.68-0.27-1.65-1.42c0.03-1.11,0.71-1.29,1.65-1.28c5.48,0.02,10.97,0,16.45,0.02c0.46,0,0.91,0.15,1.37,0.23
		C55.13,32.13,55.1,32.22,55.07,32.32z"/>
	<path class="st3" d="M45.66,39.37c-0.43,0.89-0.75,1.62-1.16,2.31c-0.14,0.23-0.51,0.43-0.78,0.44c-2.27,0.03-4.53,0.03-6.8,0.01
		c-0.86,0-1.2-0.54-1.22-1.33c-0.02-0.78,0.27-1.41,1.12-1.42C39.71,39.35,42.6,39.37,45.66,39.37z"/>
</g>
<g>
	<path class="st0" d="M67.2,42.85c0,0.77-0.35,1.52-1.04,2.25l-0.11,0.11l-6.09,6.41c-1.29,1.36-2.4,2.41-3.31,3.15
		c-0.91,0.74-1.55,1.11-1.93,1.11c-0.39,0-0.88-0.19-1.47-0.56c-0.58-0.37-0.96-0.75-1.13-1.15c-0.14-0.33-0.28-1.02-0.41-2.09
		c-0.13-1.06-0.19-2.22-0.19-3.46c0-0.68,0.28-1.3,0.85-1.88c0.56-0.57,1.19-0.86,1.87-0.86c0.65,0,1.04,0.59,1.16,1.78
		c0.01,0.14,0.02,0.24,0.03,0.31c0.1,0.91,0.23,1.55,0.36,1.91s0.33,0.54,0.56,0.54c0.1,0,0.28-0.11,0.55-0.32
		c0.27-0.21,0.59-0.5,0.97-0.87l6.26-6.2c0.53-0.53,1-0.92,1.41-1.19s0.77-0.4,1.05-0.4c0.22,0,0.37,0.08,0.46,0.25
		c0.09,0.16,0.14,0.44,0.14,0.83V42.85z"/>
</g>
</svg>
