<?xml version="1.0" encoding="utf-8"?>
<!-- Generator: Adobe Illustrator 26.3.1, SVG Export Plug-In . SVG Version: 6.00 Build 0)  -->
<svg version="1.1" id="Layer_1" xmlns="http://www.w3.org/2000/svg" xmlns:xlink="http://www.w3.org/1999/xlink" x="0px" y="0px"
	 viewBox="0 0 72 72" style="enable-background:new 0 0 72 72;" xml:space="preserve">
<style type="text/css">
	.st0{fill:#EC2027;}
	.st1{fill:#ED2224;}
	.st2{fill-rule:evenodd;clip-rule:evenodd;fill:#EA234F;}
	.st3{fill:none;stroke:#FFFFFF;stroke-width:1.8691;stroke-linecap:round;stroke-linejoin:round;stroke-miterlimit:10;}
	.st4{fill:#263944;}
	.st5{fill:#E7282D;}
	.st6{fill:#FFFFFF;}
	.st7{fill:#FFFFFF;stroke:#6D6E71;stroke-width:2.3185;stroke-linecap:round;stroke-linejoin:round;stroke-miterlimit:10;}
	.st8{fill:none;stroke:#EC2027;stroke-width:2.3932;stroke-linecap:round;stroke-linejoin:round;stroke-miterlimit:10;}
	.st9{fill:none;stroke:#EC2027;stroke-miterlimit:10;}
	.st10{fill:none;stroke:#4D4D4D;stroke-miterlimit:10;}
</style>
<g>
	<path class="st9" d="M71.68,28.12c-0.52-3.56-1.01-7.13-1.51-10.69c-0.38-2.73-0.74-5.45-1.16-8.17c-0.32-2.08-2.31-3.47-4.37-3.18
		c-5.66,0.8-11.32,1.59-16.98,2.39c-5.39,0.76-10.78,1.51-16.17,2.28c-1.88,0.27-3.29,1.87-3.25,3.77c0.02,0.93,0.2,1.86,0.32,2.79
		c0.18,1.36,0.38,2.72,0.57,4.11l2.38,0.8c12.15-1.71,24.24-3.4,36.35-5.1c0.02,0.12,0.05,0.21,0.06,0.3
		c0.2,1.39,0.39,2.79,0.59,4.18c0.32,2.32,0.66,4.64,0.97,6.97c0.13,0.97-0.47,1.75-1.41,1.89c-1.54,0.23-3.09,0.43-4.63,0.65
		c-3.94,0.55-7.88,1.1-11.81,1.66c-0.2,0.03-0.39,0.14-0.56,0.25c-0.79,0.53-1.57,1.07-2.36,1.6l0.47,0.75
		c1.61-0.23,3.32-0.48,5.02-0.72c4.73-0.67,9.47-1.32,14.2-2C70.61,32.33,72,30.35,71.68,28.12z"/>
	<path class="st10" d="M31.5,22.22c0.1,0.75,0.2,1.48,0.3,2.21c0.35,2.53,0.7,5.06,1.07,7.59c0.05,0.32-0.04,0.47-0.32,0.58
		c-2.47,0.94-4.94,1.89-7.4,2.83c-0.07,0.03-0.14,0.04-0.22,0.07c-0.35,0.11-0.56,0.33-0.44,0.71c0.12,0.37,0.4,0.46,0.76,0.34
		c1.2-0.41,2.42-0.78,3.6-1.24c1.52-0.59,3.02-1.22,4.52-1.87c1.27-0.55,2.3-1.44,3.27-2.41c1.25-1.25,2.48-2.53,3.81-3.7
		c1.8-1.58,3.81-2.83,6.17-3.43c0.57-0.14,1.16-0.22,1.75-0.23c1.9-0.02,3.17,1.09,3.48,2.96c0.23,1.41-0.04,2.74-0.71,3.99
		c-0.73,1.36-1.74,2.47-3.06,3.28c-1.07,0.65-2.16,1.28-3.24,1.92c-2.41,1.45-4.18,3.45-5.27,6.05c-1.24,2.94-2.52,5.86-4.21,8.59
		c-1.47,2.38-3.14,4.59-5.32,6.39c-2.63,2.17-5.72,3.33-8.99,4.12c-0.29,0.07-0.41-0.09-0.55-0.27c-2.85-3.48-5.7-6.95-8.55-10.42
		c-1.01-1.23-2.01-2.46-3.03-3.68c-0.16-0.19-0.24-0.34-0.1-0.59c3.57-6.67,7.02-13.4,11.25-19.69c0.28-0.41,0.59-0.81,0.86-1.23
		c0.67-1.06,1.61-1.77,2.78-2.14c1.6-0.5,3.22-0.93,4.83-1.38c0.19-0.05,0.38-0.09,0.6-0.13L31.5,22.22z M49.16,35.36
		c-0.08,0.97-0.09,1.89-0.24,2.79c-0.21,1.27-0.88,2.32-1.87,3.13c-1.34,1.09-2.8,2.01-4.41,2.66c-0.92,0.37-1.87,0.45-2.86,0.31
		c1.01-2.91,2.43-5.49,5.11-7.17c0.56-0.35,1.15-0.67,1.7-1.04c0.7-0.47,1.41-0.95,2.11-1.42L49.16,35.36z"/>
	<path class="st10" d="M5.95,45.67c0.64,0.1,1.09,0.36,1.45,0.81c2.89,3.53,5.79,7.06,8.69,10.59c1.32,1.61,2.65,3.23,3.97,4.84
		c0.78,0.95,0.68,1.89-0.27,2.68c-1.17,0.96-2.34,1.92-3.51,2.88c-0.91,0.74-1.86,0.65-2.62-0.27C9.44,62.06,5.22,56.91,1,51.77
		c-0.73-0.89-0.65-1.86,0.23-2.59c1.2-0.99,2.4-1.99,3.62-2.95C5.17,45.98,5.58,45.85,5.95,45.67z"/>
	<path class="st10" d="M46.98,42.81c-0.14,1.07-0.47,2.05-1.04,2.93c-0.06,0.1-0.16,0.19-0.25,0.25c-1.95,1.32-4.05,2.21-6.46,2.17
		c-0.4-0.01-0.8-0.07-1.26-0.11c0.43-0.92,0.82-1.76,1.23-2.6c0.04-0.07,0.2-0.13,0.29-0.11c2.4,0.39,4.39-0.62,6.33-1.84
		c0.36-0.23,0.71-0.47,1.06-0.7C46.88,42.8,46.9,42.81,46.98,42.81z"/>
	<path class="st10" d="M36.24,51.13c0.37-0.66,0.72-1.29,1.09-1.91c0.05-0.08,0.23-0.15,0.33-0.13c2.64,0.53,5.06-0.15,7.36-1.39
		c0.11-0.06,0.21-0.11,0.38-0.2c-0.17,0.88-0.5,1.6-1.1,2.18c-0.82,0.8-1.81,1.3-2.92,1.56C39.68,51.65,37.98,51.5,36.24,51.13z"/>
	<path class="st10" d="M30.78,17.14c12.15-1.71,24.25-3.41,36.37-5.11c-0.12-0.85-0.21-1.63-0.34-2.41
		c-0.13-0.79-0.84-1.36-1.65-1.34c-0.3,0.01-0.6,0.07-0.9,0.11c-3.76,0.53-7.52,1.05-11.27,1.58c-3.98,0.56-7.96,1.12-11.94,1.68
		c-3.05,0.43-6.11,0.85-9.16,1.29c-0.88,0.13-1.54,0.91-1.44,1.75C30.52,15.48,30.66,16.27,30.78,17.14z"/>
</g>
</svg>
