<?xml version="1.0" encoding="utf-8"?>
<!-- Generator: Adobe Illustrator 16.0.0, SVG Export Plug-In . SVG Version: 6.00 Build 0)  -->
<!DOCTYPE svg PUBLIC "-//W3C//DTD SVG 1.1//EN" "http://www.w3.org/Graphics/SVG/1.1/DTD/svg11.dtd">
<svg version="1.1" xmlns="http://www.w3.org/2000/svg" xmlns:xlink="http://www.w3.org/1999/xlink" x="0px" y="0px" width="50px"
	 height="50px" viewBox="0 0 360 360" enable-background="new 0 0 360 360" xml:space="preserve">
<g id="Layer_2">
</g>
<g id="Layer_3">
	<g>
		<g id="Capa_1">
			<g>
				<path fill="#666666" stroke="#FCFCFC" stroke-width="2" stroke-miterlimit="10" d="M336.746,65.967H23.255
					C10.422,65.967-0.12,76.509-0.12,89.34v182.414c0,12.832,10.542,23.374,23.375,23.374h313.491
					c12.833,0,23.374-10.542,23.374-23.374V89.34C360.12,76.509,349.579,65.967,336.746,65.967z M349.12,271.754
					c0,6.876-5.498,12.374-12.374,12.374H23.255c-6.875,0-12.374-5.498-12.374-12.374V89.34c0-6.873,5.499-12.373,12.374-12.373
					h313.491c6.876,0,12.374,5.5,12.374,12.373V271.754z"/>
				
					<rect x="36.088" y="187.88" fill="#666666" stroke="#FCFCFC" stroke-width="2" stroke-miterlimit="10" width="62.791" height="11"/>
				
					<rect x="36.088" y="236.005" fill="#666666" stroke="#FCFCFC" stroke-width="2" stroke-miterlimit="10" width="137.037" height="11"/>
				
					<rect x="176.792" y="134.256" fill="#666666" stroke="#FCFCFC" stroke-width="2" stroke-miterlimit="10" width="66.915" height="11"/>
				
					<rect x="176.792" y="109.508" fill="#666666" stroke="#FCFCFC" stroke-width="2" stroke-miterlimit="10" width="133.829" height="11"/>
				
					<rect x="114.46" y="187.88" fill="#666666" stroke="#FCFCFC" stroke-width="2" stroke-miterlimit="10" width="62.791" height="11"/>
				
					<rect x="192.834" y="187.88" fill="#666666" stroke="#FCFCFC" stroke-width="2" stroke-miterlimit="10" width="62.789" height="11"/>
				
					<rect x="271.665" y="187.88" fill="#666666" stroke="#FCFCFC" stroke-width="2" stroke-miterlimit="10" width="62.79" height="11"/>
				<path fill="#EF4123" stroke="#FCFCFC" stroke-width="2" stroke-miterlimit="10" d="M125.919,166.339
					c3.208,0,5.5-2.292,5.5-5.501v-58.663c0-3.209-2.292-5.499-5.5-5.499H38.38c-3.209,0-5.501,2.29-5.501,5.499v58.664
					c0,3.208,2.29,5.501,5.501,5.501L125.919,166.339L125.919,166.339z M120.419,107.675v9.165h-19.708c-3.207,0-5.5,2.292-5.5,5.5
					c0,3.209,2.293,5.5,5.5,5.5h19.708v7.334h-19.708c-3.207,0-5.5,2.29-5.5,5.5c0,3.208,2.293,5.5,5.5,5.5h19.708v9.166h-76.54
					v-9.166h19.708c3.207,0,5.499-2.293,5.499-5.5c0-3.209-2.292-5.5-5.499-5.5H43.879v-7.334h19.708c3.207,0,5.499-2.291,5.499-5.5
					c0-3.208-2.292-5.5-5.499-5.5H43.879v-9.165H120.419L120.419,107.675z"/>
				<path fill="#EF4123" stroke="#FCFCFC" stroke-width="2" stroke-miterlimit="10" d="M304.663,215.38
					c-8.249,0-15.583,3.665-20.165,10.083c-4.584-5.958-11.916-10.083-20.167-10.083c-14.207,0-26.124,11.457-26.124,26.125
					c0,14.207,11.458,26.124,26.124,26.124c8.251,0,15.584-3.666,20.167-10.083c4.582,5.958,11.916,10.083,20.165,10.083
					c14.208,0,26.125-11.457,26.125-26.124C330.788,226.837,318.871,215.38,304.663,215.38z M263.873,256.171
					c-8.25,0-15.125-6.876-15.125-15.124c0-8.252,6.875-15.126,15.125-15.126c7.792,0,14.207,5.957,14.666,13.749
					c0,0.458,0,0.916,0,1.374c0,0.459,0,0.918,0,1.376C278.08,250.213,271.665,256.171,263.873,256.171z M304.663,256.171
					c-7.792,0-14.208-5.958-14.666-13.749c0-0.458,0-0.917,0-1.375c0-0.459,0-0.917,0-1.375c0.458-7.792,6.874-13.749,14.666-13.749
					c8.25,0,15.125,6.875,15.125,15.126C319.788,249.754,312.913,256.171,304.663,256.171z"/>
			</g>
		</g>
		<g id="Layer_2_1_">
		</g>
	</g>
</g>
</svg>
