<?xml version="1.0" encoding="utf-8"?>
<!-- Generator: Adobe Illustrator 16.0.0, SVG Export Plug-In . SVG Version: 6.00 Build 0)  -->
<!DOCTYPE svg PUBLIC "-//W3C//DTD SVG 1.1//EN" "http://www.w3.org/Graphics/SVG/1.1/DTD/svg11.dtd">
<svg version="1.1" id="Layer_1" xmlns="http://www.w3.org/2000/svg" xmlns:xlink="http://www.w3.org/1999/xlink" x="0px" y="0px"
	 width="360px" height="360px" viewBox="0 0 360 360" enable-background="new 0 0 360 360" xml:space="preserve">
<g>
	<path fill="#666766" d="M325.902,76.416c-2.283-3.212-6.742-3.962-9.952-1.684c-3.216,2.284-3.962,6.741-1.684,9.952
		c19.127,26.911,30.373,59.767,30.378,95.312c-0.005,45.493-18.414,86.607-48.222,116.425
		c-29.812,29.807-70.929,48.217-116.419,48.222c-40.907-0.005-78.253-14.932-107.058-39.602l28.604-5.919
		c3.863-0.798,6.341-4.571,5.542-8.43c-0.8-3.863-4.573-6.341-8.43-5.54l-47.404,9.807l-0.833,48.399
		c-0.072,3.944,3.073,7.188,7.017,7.259c3.939,0.066,7.188-3.073,7.254-7.012l0.457-26.483
		c31.068,26.051,71.141,41.798,114.85,41.791c98.818-0.003,178.909-80.099,178.912-178.917
		C358.915,141.426,346.686,105.634,325.902,76.416z"/>
	<path fill="#666766" d="M15.362,179.995c0.005-45.486,18.415-86.601,48.222-116.419c29.812-29.803,70.927-48.212,116.42-48.217
		c40.139,0.005,76.86,14.363,105.431,38.218l-26.579,5.5c-3.862,0.793-6.34,4.571-5.541,8.428c0.799,3.863,4.571,6.342,8.43,5.542
		l47.404-9.809l0.822-48.407c0.066-3.939-3.072-7.188-7.017-7.255c-3.939-0.066-7.192,3.074-7.254,7.017l-0.485,28.543
		C264.098,16.91,223.873,1.083,179.999,1.088C81.18,1.093,1.089,81.187,1.084,179.995c-0.004,36.892,11.185,71.232,30.336,99.714
		c2.202,3.271,6.636,4.139,9.904,1.94c3.273-2.199,4.139-6.637,1.94-9.906C25.642,245.519,15.362,213.995,15.362,179.995z"/>
</g>
<g>
	<path fill="#EF4223" d="M172.761,174.094h-38.864l65.154,68.963l7.241-7.62l-48.772-51.056h15.622
		c15.622-0.381,28.576-12.573,30.862-28.576h22.1v-10.287h-22.1c-1.144-6.859-3.81-13.336-8.382-18.289h30.481v-10.288h-87.634
		v10.288h34.292c10.288,0,19.052,7.62,21.337,18.289h-55.628v10.287h55.628C191.812,166.093,183.049,174.094,172.761,174.094z"/>
</g>
</svg>
