<?xml version="1.0" encoding="utf-8"?>
<!-- Generator: Adobe Illustrator 21.0.0, SVG Export Plug-In . SVG Version: 6.00 Build 0)  -->
<svg version="1.1" id="Layer_1" xmlns="http://www.w3.org/2000/svg" xmlns:xlink="http://www.w3.org/1999/xlink" x="0px" y="0px"
	 viewBox="0 0 40 40" style="enable-background:new 0 0 40 40;" xml:space="preserve">
<style type="text/css">
	.st0{fill:#666766;}
	.st1{fill:#EA212C;}
	.st2{fill:none;stroke:#666766;stroke-miterlimit:10;}
	.st3{fill:#333333;}
</style>
<g>
	<g>
		<path id="XMLID_5_" class="st3" d="M4.5,25.8l5.1,4.7v1.8H9.4c-0.3,0-0.5,0.2-0.5,0.5v3.5c0,0.3,0.2,0.5,0.5,0.5
			c0.3,0,0.5-0.2,0.5-0.5v-3h6.2v0.9h-4.7c-0.3,0-0.5,0.2-0.5,0.5c0,0.3,0.2,0.5,0.5,0.5h4.7v1.6c0,0.3,0.2,0.5,0.5,0.5l0,0
			c0.3,0,0.5-0.2,0.5-0.5V26.2c0-0.1,0-0.2-0.1-0.3l-7.1-7.4c-0.8-0.8-2.1-0.9-3-0.1c-0.3,0.3-0.5,0.6-0.6,1l-0.4-0.5v-5.7
			c0-1.3-1.1-2.3-2.5-2.1c-0.9,0.1-1.6,0.9-1.8,1.8c0,0.1,0,0.2,0,0.4v6.4c0,0.1,0,0.1,0,0.2l2.8,5.8C4.5,25.7,4.5,25.7,4.5,25.8z
			 M2.6,13.1c0-0.6,0.5-1.2,1.1-1.2c0.6,0,1.2,0.5,1.2,1.1c0,0,0,0,0,0.1V19c0,0.1,0,0.2,0.1,0.3l1.7,2L7.3,22l2.4,2.7
			c0.2,0.2,0.5,0.2,0.7,0.1c0.2-0.2,0.2-0.5,0.1-0.7c0,0,0,0,0,0L8.6,22l-1.2-1.3C7,20.2,7.1,19.4,7.6,19c0.2-0.2,0.5-0.3,0.8-0.3
			c0.3,0,0.6,0.1,0.8,0.4l7,7.3v5.9h-5.5v-2c0-0.1-0.1-0.3-0.2-0.4l-5.2-4.8l-2.7-5.6L2.6,13.1z"/>
		<path id="XMLID_2_" class="st3" d="M35.9,11c-0.9,0.1-1.6,0.9-1.8,1.8c0,0.1,0,0.2,0,0.4v5.7l-0.4,0.5c-0.3-1.1-1.5-1.8-2.6-1.4
			c-0.4,0.1-0.7,0.3-0.9,0.6l-7.1,7.4c-0.1,0.1-0.1,0.2-0.1,0.3v10.5c0,0.3,0.2,0.5,0.5,0.5l0,0c0.3,0,0.5-0.2,0.5-0.5v-1.6h4.8
			c0.3,0,0.5-0.2,0.5-0.5c0-0.3-0.2-0.5-0.5-0.5h-4.8v-0.9h6.2v3.1c0,0.3,0.2,0.5,0.5,0.5s0.5-0.2,0.5-0.5v-3.6
			c0-0.3-0.2-0.5-0.5-0.5h-0.2v-1.8l5.1-4.7c0-0.1,0.1-0.1,0.1-0.2l2.8-5.8c0-0.1,0-0.1,0-0.2v-6.4C38.4,11.8,37.3,10.8,35.9,11z
			 M37.4,13.1v6.3l-2.7,5.6l-5.2,4.8c-0.1,0.1-0.2,0.2-0.2,0.4v2h-5.5v-5.9l7-7.3c0.4-0.5,1.2-0.5,1.6,0c0,0,0,0,0,0
			c0.4,0.4,0.5,1.1,0.1,1.6L31.4,22l-1.9,2.1c-0.2,0.2-0.2,0.5,0,0.7c0.2,0.2,0.5,0.2,0.7,0c0,0,0,0,0,0l2.4-2.7l0.6-0.7l1.7-2
			c0.1-0.1,0.1-0.2,0.1-0.3v-5.9c0-0.6,0.5-1.2,1.1-1.2C36.9,11.9,37.4,12.4,37.4,13.1C37.4,13.1,37.4,13.1,37.4,13.1z"/>
	</g>
	<path class="st1" d="M24,7.6V3.3c0-0.3-0.2-0.5-0.5-0.5H16c-0.3,0-0.5,0.2-0.5,0.5v4.3h-4.3c-0.3,0-0.5,0.2-0.5,0.5v7.4
		c0,0.3,0.2,0.5,0.5,0.5h4.3v4.3c0,0.3,0.2,0.5,0.5,0.5h7.4c0.3,0,0.5-0.2,0.5-0.5v-4.3h4.3c0.3,0,0.5-0.2,0.5-0.5V8.1
		c0-0.3-0.2-0.5-0.5-0.5H24z M27.7,15h-4.8v4.8h-6.4V15h-4.8V8.6h4.8V3.9h6.4v4.8h4.8V15z"/>
</g>
</svg>
