<?xml version="1.0" encoding="utf-8"?>
<!-- Generator: Adobe Illustrator 16.0.0, SVG Export Plug-In . SVG Version: 6.00 Build 0)  -->
<!DOCTYPE svg PUBLIC "-//W3C//DTD SVG 1.1//EN" "http://www.w3.org/Graphics/SVG/1.1/DTD/svg11.dtd">
<svg version="1.1" id="Layer_1" xmlns="http://www.w3.org/2000/svg" xmlns:xlink="http://www.w3.org/1999/xlink" x="0px" y="0px"
	 width="360px" height="360px" viewBox="0 0 360 360" enable-background="new 0 0 360 360" xml:space="preserve">
<path fill="#676767" stroke="#FFFFFF" stroke-width="3" stroke-miterlimit="10" d="M347.439,84.551h-37.62
	c8.327-12.475,10.829-30.673,5.973-44.825C307.895,16.71,285.034,0,261.443,0c-9.299,0-18.245,2.442-26.591,7.264
	c-11.014,6.353-41.412,36.279-56.484,60.288c-15.079-24.008-45.476-53.93-56.492-60.288C113.54,2.442,104.593,0,95.293,0
	c-23.59,0-46.446,16.71-54.353,39.73c-4.852,14.152-2.351,32.351,5.978,44.816H14.561v67.003h37.621v208.094h257.638V151.55h37.62
	V84.551z M243.237,21.774c5.759-3.326,11.887-5.017,18.211-5.017c16.653,0,32.847,11.948,38.492,28.412
	c3.244,9.433,1.342,22.645-4.426,30.728c-4.062,5.707-9.674,8.601-16.666,8.61l-45.657,0.043h-45.63
	C194.509,69.238,228.3,30.396,243.237,21.774z M77.902,84.503c-7-0.004-12.607-2.903-16.675-8.605
	c-5.758-8.079-7.669-21.295-4.43-30.732c5.65-16.464,21.843-28.412,38.497-28.412c6.319,0,12.444,1.686,18.207,5.017
	c14.938,8.626,48.732,47.464,55.673,62.776H123.55L77.902,84.503z M31.318,134.792v-33.485h91.797l49.504,0.048v33.437H52.182
	H31.318z M68.943,151.55h103.68v191.332H68.943V151.55z M293.057,342.885H189.376V151.55h103.681V342.885L293.057,342.885z
	 M330.679,134.792h-20.859H189.376v-33.441l44.255-0.043h97.048V134.792L330.679,134.792z"/>
<rect x="28.322" y="98.312" fill="#EF4323" width="305.352" height="39.475"/>
</svg>
