<?xml version="1.0" encoding="utf-8"?>
<!-- Generator: Adobe Illustrator 18.0.0, SVG Export Plug-In . SVG Version: 6.00 Build 0)  -->
<!DOCTYPE svg PUBLIC "-//W3C//DTD SVG 1.1//EN" "http://www.w3.org/Graphics/SVG/1.1/DTD/svg11.dtd">
<svg version="1.1" id="Layer_1" xmlns="http://www.w3.org/2000/svg" xmlns:xlink="http://www.w3.org/1999/xlink" x="0px" y="0px"
	 width="40" height="40" viewBox="271.3 86.7 299.2 302.8" enable-background="new 271.3 86.7 299.2 302.8"
	 xml:space="preserve">
<path fill="#666666" d="M333.8,248.3h-12.2v-156c0-3.1-2.5-5.6-5.6-5.6c-3.1,0-5.6,2.5-5.6,5.6v156h-12.2
	c-14.8,0-26.9,12.1-26.9,26.9v3.6c0,14.8,12.1,26.9,26.9,26.9h12.2V384c0,3.1,2.5,5.6,5.6,5.6c3.1,0,5.6-2.5,5.6-5.6v-78.3h12.2
	c14.8,0,26.9-12.1,26.9-26.9v-3.6C360.7,260.3,348.6,248.3,333.8,248.3z M349.6,278.7c0,8.7-7.1,15.8-15.8,15.8h-35.6
	c-8.7,0-15.8-7.1-15.8-15.8v-3.6c0-8.7,7.1-15.8,15.8-15.8h35.6c8.7,0,15.8,7.1,15.8,15.8V278.7L349.6,278.7z"/>
<path fill="#666666" d="M439.1,155.8h-12.2V92.3c0-3.1-2.5-5.6-5.6-5.6s-5.6,2.5-5.6,5.6v63.5h-12.2c-14.8,0-26.9,12.1-26.9,26.9
	v3.6c0,14.8,12.1,26.9,26.9,26.9h12.2V384c0,3.1,2.5,5.6,5.6,5.6s5.6-2.5,5.6-5.6V213.2h12.2c14.8,0,26.9-12.1,26.9-26.9v-3.6
	C466.1,167.8,454,155.8,439.1,155.8z M454.9,186.2c0,8.7-7.1,15.8-15.8,15.8h-35.6c-8.7,0-15.8-7.1-15.8-15.8v-3.6
	c0-8.7,7.1-15.8,15.8-15.8h35.6c8.7,0,15.8,7.1,15.8,15.8V186.2z"/>
<path fill="#666666" d="M543.6,294.5h-12.2V92.3c0-3.1-2.5-5.6-5.6-5.6c-3.1,0-5.6,2.5-5.6,5.6v202.2h-12.2
	c-14.8,0-26.9,12.1-26.9,26.9v3.6c0,14.8,12.1,26.9,26.9,26.9h12.2V384c0,3.1,2.5,5.6,5.6,5.6c3.1,0,5.6-2.5,5.6-5.6v-32.1h12.2
	c14.8,0,26.9-12.1,26.9-26.9v-3.6C570.5,306.6,558.5,294.5,543.6,294.5z"/>
<g>
	<path fill="#EF4123" d="M531.4,351.9h12.2c14.8,0,26.9-12.1,26.9-26.9v-3.6c0-14.8-12.1-26.9-26.9-26.9h-12.2h-11.1h-12.2
		c-14.8,0-26.9,12.1-26.9,26.9v3.6c0,14.8,12.1,26.9,26.9,26.9h12.2H531.4z"/>
	<path fill="#F9F9F9" d="M559.4,325c0,8.7-7.1,15.8-15.8,15.8h-35.6c-8.7,0-15.8-7.1-15.8-15.8v-3.6c0-8.7,7.1-15.8,15.8-15.8h35.6
		c8.7,0,15.8,7.1,15.8,15.8V325z"/>
</g>
<g>
	<path fill="#EF4123" d="M426.9,213.1h12.2c14.8,0,26.9-12.1,26.9-26.9v-3.6c0-14.8-12.1-26.9-26.9-26.9h-12.2h-11.1h-12.2
		c-14.8,0-26.9,12.1-26.9,26.9v3.6c0,14.8,12.1,26.9,26.9,26.9h12.2H426.9z"/>
	<path fill="#F9F9F9" d="M454.9,186.1c0,8.7-7.1,15.8-15.8,15.8h-35.6c-8.7,0-15.8-7.1-15.8-15.8v-3.6c0-8.7,7.1-15.8,15.8-15.8
		h35.6c8.7,0,15.8,7.1,15.8,15.8V186.1z"/>
</g>
<g>
	<path fill="#EF4123" d="M321.6,305.6h12.2c14.8,0,26.9-12.1,26.9-26.9v-3.6c0-14.8-12.1-26.9-26.9-26.9h-12.2h-11.1h-12.2
		c-14.8,0-26.9,12.1-26.9,26.9v3.6c0,14.8,12.1,26.9,26.9,26.9h12.2H321.6z"/>
	<path fill="#F9F9F9" d="M349.6,278.7c0,8.7-7.1,15.8-15.8,15.8h-35.6c-8.7,0-15.8-7.1-15.8-15.8v-3.6c0-8.7,7.1-15.8,15.8-15.8
		h35.6c8.7,0,15.8,7.1,15.8,15.8V278.7z"/>
</g>
</svg>
