<?xml version="1.0" encoding="utf-8"?>
<!-- Generator: Adobe Illustrator 19.1.0, SVG Export Plug-In . SVG Version: 6.00 Build 0)  -->
<svg version="1.1" id="Layer_1" xmlns="http://www.w3.org/2000/svg" xmlns:xlink="http://www.w3.org/1999/xlink" x="0px" y="0px" width="32px" height="32px"
	 viewBox="0 0 144 144" style="enable-background:new 0 0 144 144;" xml:space="preserve">
<style type="text/css">
	.st0{fill:#EE4122;stroke:#FFFFFF;stroke-miterlimit:10;}
	.st1{fill:#666666;stroke:#FFFFFF;stroke-miterlimit:10;}
</style>
<g>
	<g>
		<path class="st0" d="M142.9,1.1c-1.4-1.4-3.7-1.4-5.1,0L1.1,137.9c-1.4,1.4-1.4,3.7,0,5.1c0.7,0.7,1.6,1.1,2.5,1.1
			c0.9,0,1.8-0.4,2.5-1.1L142.9,6.1C144.3,4.7,144.3,2.5,142.9,1.1z"/>
	</g>
</g>
<g>
	<g>
		<path class="st1" d="M36,0C16.1,0,0,16.1,0,36c0,19.9,16.1,36,36,36c19.9,0,36-16.1,36-36C72,16.1,55.9,0,36,0z M36,64.8
			C20.1,64.8,7.2,51.9,7.2,36C7.2,20.1,20.1,7.2,36,7.2c15.9,0,28.8,12.9,28.8,28.8C64.8,51.9,51.9,64.8,36,64.8z"/>
	</g>
</g>
<g>
	<g>
		<path class="st1" d="M108,72c-19.9,0-36,16.1-36,36c0,19.9,16.1,36,36,36c19.9,0,36-16.1,36-36C144,88.1,127.9,72,108,72z
			 M108,136.8c-15.9,0-28.8-12.9-28.8-28.8S92.1,79.2,108,79.2s28.8,12.9,28.8,28.8S123.9,136.8,108,136.8z"/>
	</g>
</g>
</svg>
