<?xml version="1.0" encoding="utf-8"?>
<!-- Generator: Adobe Illustrator 16.0.0, SVG Export Plug-In . SVG Version: 6.00 Build 0)  -->
<!DOCTYPE svg PUBLIC "-//W3C//DTD SVG 1.1//EN" "http://www.w3.org/Graphics/SVG/1.1/DTD/svg11.dtd">
<svg version="1.1" id="Layer_1" xmlns="http://www.w3.org/2000/svg" xmlns:xlink="http://www.w3.org/1999/xlink" x="0px" y="0px"
	 width="360px" height="360px" viewBox="0 0 360 360" enable-background="new 0 0 360 360" xml:space="preserve">
<g>
	<g>
		<path fill="#666766" stroke="#FFFFFF" stroke-width="16" stroke-miterlimit="10" d="M180,0C80.584,0,0,80.584,0,180
			c0,99.415,80.584,180,180,180c99.415,0,180-80.585,180-180C360,80.584,279.415,0,180,0z M180,331.875
			c-83.881,0-151.875-67.994-151.875-151.875S96.119,28.125,180,28.125S331.875,96.119,331.875,180S263.881,331.875,180,331.875z"/>
		<path fill="#EF4223" d="M179.989,90c-18.644,0-32.663,7.976-42.133,23.83c-9.403,15.908-14.106,37.518-14.106,64.775
			c0,30.191,4.703,52.91,14.106,68.335c9.471,15.336,23.489,23.06,42.133,23.06c18.655,0,32.739-7.724,42.132-23.061
			c9.416-15.425,14.129-38.145,14.129-68.334C236.25,119.531,217.452,90,179.989,90z M205.467,232.537
			c-5.241,11.59-13.788,17.281-25.478,17.281c-11.733,0-20.182-5.691-25.5-17.281c-5.285-11.591-7.888-29.543-7.888-53.932
			c0-24.181,2.604-41.594,7.888-52.372c5.317-10.734,13.766-16.106,25.5-16.106c11.689,0,20.236,5.373,25.478,16.106
			c5.306,10.777,7.932,28.191,7.932,52.372C213.398,202.994,210.772,220.946,205.467,232.537z"/>
	</g>
</g>
</svg>
